<?xml version="1.0" standalone="no"?>
<!DOCTYPE svg PUBLIC "-//W3C//DTD SVG 1.1//EN" "http://www.w3.org/Graphics/SVG/1.1/DTD/svg11.dtd" >
<svg xmlns="http://www.w3.org/2000/svg">
<metadata></metadata>
<defs>
<font id="_.regular" horiz-adv-x="2048" >
<font-face units-per-em="2048" ascent="1536" descent="-512" />
<missing-glyph horiz-adv-x="1024" />
<glyph />
<glyph />
<glyph unicode="&#xd;" horiz-adv-x="500" />
<glyph unicode=" "  horiz-adv-x="1024" />
<glyph unicode="&#x09;" horiz-adv-x="1024" />
<glyph unicode="&#xa0;" horiz-adv-x="1024" />
<glyph unicode="!" horiz-adv-x="2052" d="M284 1110q0 82 31 154t84 125t125 83.5t154 30.5q114 0 211 -61q64 14 137 14q146 0 274 -55t223 -150.5t150 -223.5q55 -127 55 -273q0 -43 -5 -85.5t-15 -82.5q47 -84 47 -186q0 -82 -30.5 -154t-85 -126t-126 -85t-153.5 -31q-58 0 -109 16t-98 44q-62 -12 -127 -13 q-146 0 -274 55.5t-223 150.5t-150 223t-55 274q0 41 4 77.5t12 73.5q-26 45 -41 96t-15 109zM608 549q0 -64 46 -127q43 -66 114 -102q100 -53 252 -54q129 0 219 39q93 37 143 109q50 68 50 156q0 72 -29 122q-26 49 -80 84q-49 34 -121 56t-154 40q-35 8 -58.5 13.5 t-39.5 9.5q-14 4 -27 10.5t-28 12.5q-24 10 -43 32q-14 18 -14 41q0 39 44 66q44 31 122 31q84 0 116 -27q36 -24 64 -78q20 -39 40 -55q20 -20 62 -20q43 0 72 30q28 28 28 68q0 42 -20 80q-26 44 -70 78q-22 16 -51 31t-63 25q-68 20 -164 21q-119 -1 -207 -31 q-88 -33 -135 -96q-50 -62 -50 -141t46 -141q44 -52 120 -88q37 -16 84.5 -30t100.5 -26q80 -16 129 -30q44 -14 76 -42q26 -26 26 -67q0 -53 -53 -88q-53 -37 -141 -37q-64 0 -100 18q-20 10 -35 22t-25 24q-22 33 -41 71q-14 39 -41 61q-22 20 -62 21q-45 -1 -73 -27 q-29 -28 -29 -65z" />
<glyph unicode="&#x22;" horiz-adv-x="2050" d="M240 930q10 28 40 32l484 70l215 438q14 28 45 29q30 -1 45 -29l215 -438l484 -70q30 -4 40 -32q8 -30 -12 -52l-350 -342l82 -480q4 -12 -2 -26t-16 -22q-24 -18 -54 -4l-432 228l-432 -228q-28 -14 -54 4q-10 8 -16 22t-2 26l82 480l-350 342q-20 20 -12 52z" />
<glyph unicode="#" />
<glyph unicode="$" d="M223 236v900q0 56 39 95q38 39 94 39h1336q56 0 94.5 -39t38.5 -95v-900q0 -56 -39 -95q-38 -39 -94 -39h-1336q-56 0 -94.5 39t-38.5 95zM352 381l148 -149l305 304l84 -84l139 -124l215 206l303 -302l150 149l-306 305l306 308l-148 146l-528 -501l-520 501l-123 -114 l-25 -32l306 -308z" />
<glyph unicode="%" horiz-adv-x="0" d="M127 1276h1802l-901 -1082z" />
<glyph unicode="&#x26;" d="M127 194l901 1082l901 -1082h-1802z" />
<glyph unicode="'" horiz-adv-x="2043" d="M578 0v1499l898 -749z" />
<glyph unicode="(" horiz-adv-x="2045" d="M578 750l898 749v-1499z" />
<glyph unicode=")" d="M272 916q0 121 46 227.5t125 186t185.5 125.5t227.5 46t227.5 -46t186.5 -125.5t126 -186.5t46 -227q0 -86 -24 -164t-64 -146l382 -383q40 -43 40 -94t-40 -94q-20 -20 -44 -29q-26 -10 -50 -10q-56 0 -92 39l-384 385q-140 -88 -310 -88q-121 0 -227.5 46t-185.5 125 t-125 185t-46 228zM500 916q0 -74 27.5 -139t77 -114t113.5 -76.5t138 -27.5t138.5 27.5t113.5 76.5t76.5 114t27.5 139t-27.5 138t-76.5 113t-113.5 77t-138.5 28t-138 -28t-113.5 -77t-76.5 -113q-28 -64 -28 -138z" />
<glyph unicode="*" horiz-adv-x="2050" d="M540 1026q0 98 38 184t104 151t154 101.5t188 36.5t188 -36.5t154 -101.5t104 -151t38 -184q0 -116 -46.5 -242t-117 -256t-155.5 -263.5t-165 -262.5q-80 125 -165 256t-155.5 262.5t-117 259.5t-46.5 246zM696 1016q0 -68 26 -127t71 -104t104 -71t127 -26t127 26 t104 71t71 104t26 127t-26 128t-71 104t-104 70t-127 26t-127 -26t-104 -70t-71 -104t-26 -128zM821 1016q0 86 58.5 144t144.5 58t144.5 -58t58.5 -144q0 -41 -15.5 -78t-43.5 -64.5t-64.5 -44t-79.5 -16.5t-79.5 16.5t-64.5 44t-43.5 64.5t-15.5 78z" />
<glyph unicode="+" d="M272 916q0 121 46 227.5t125 185t185.5 124.5t227.5 46t227.5 -46t186.5 -124.5t126 -185.5t46 -227q0 -86 -24 -164t-64 -146l382 -383q39 -39 39.5 -93t-39.5 -95q-39 -39 -93 -39q-55 0 -93 39l-384 385q-68 -43 -146 -66.5t-164 -23.5q-121 0 -227.5 46t-185.5 126 t-125 186t-46 228zM438 916q0 -86 33 -163t90 -133.5t133 -89t162 -32.5t163 32.5t133 89t89 133.5t33 163t-33 162.5t-89 133t-133 89t-163 32.5t-162 -32.5t-133 -89t-90 -133t-33 -162.5zM588 848h194v-196h136v196h196v131h-196v199h-136v-199h-194v-131z" />
<glyph unicode="," d="M735 -2v322h84v380h-84v324h506v-704h69v-322h-575zM782 1315q0 84 68 133q66 51 168 51t162 -53q62 -53 61 -131q1 -85 -63 -131q-68 -52 -162 -52q-100 0 -166 48q-68 44 -68 135z" />
<glyph unicode="-" horiz-adv-x="2052" d="M272 916q0 121 46 227.5t125 185t185.5 124.5t227.5 46t227.5 -46t186.5 -124.5t126 -185.5t46 -227q0 -86 -24 -164t-64 -146l382 -383q39 -39 39.5 -93t-39.5 -95q-39 -39 -93 -39q-55 0 -93 39l-384 385q-68 -43 -146 -66.5t-164 -23.5q-121 0 -227.5 46t-185.5 126 t-125 186t-46 228zM438 916q0 -86 33 -163t90 -133.5t133 -89t162 -32.5t163 32.5t133 89t89 133.5t33 163t-33 162.5t-89 133t-133 89t-163 32.5t-162 -32.5t-133 -89t-90 -133t-33 -162.5zM588 848h526v131h-526v-131z" />
<glyph unicode="." horiz-adv-x="2052" d="M274 838q0 84 28 154.5t79 123t124 82t163 29.5q92 0 179 -52.5t179 -150.5q98 96 186 149.5t180 53.5q100 0 173 -29.5t120 -82t70 -123t23 -154.5q0 -76 -33 -150t-85 -143.5t-121 -133t-138 -118.5q-166 -129 -375 -244q-211 109 -377 237q-72 56 -138.5 119.5 t-119.5 133t-85 145.5t-32 154z" />
<glyph unicode="/" horiz-adv-x="2052" d="M276 240q0 -49 20 -93.5t52.5 -77t76.5 -52t93 -19.5t93.5 19.5t77 52t52 76.5t19.5 94q0 49 -19.5 93t-52 76.5t-76.5 52.5t-94 20q-49 0 -93 -20t-76.5 -52.5t-52.5 -76.5t-20 -93zM276 882q0 -56 39 -94t95 -38q129 0 240.5 -48t195.5 -132t132 -197t48 -240 q0 -58 40 -96.5t95 -38.5q56 0 94.5 38.5t38.5 96.5q0 182 -69.5 343t-189 280.5t-280.5 189.5t-345 70q-56 0 -95 -39t-39 -95zM276 1366q0 56 39 94.5t95 38.5q301 0 544.5 -100.5t435.5 -292.5q198 -198 293 -441t95 -532q0 -58 -40 -96.5t-96 -38.5t-94 39t-38 96 q0 228 -86 427.5t-236 349t-350 235.5t-428 86q-56 0 -95 38.5t-39 96.5z" />
<glyph unicode="0" d="M348 717q0 64 24 118t64.5 96t95 65.5t117.5 23.5q64 0 118 -23.5t96 -65.5t65.5 -96t23.5 -118t-23.5 -118t-65.5 -95t-96.5 -64.5t-117.5 -23.5q-64 0 -118 23.5t-94.5 64.5t-64.5 95.5t-24 117.5zM1104 717q0 64 23.5 118t64.5 96t95.5 65.5t117.5 23.5 q64 0 118 -23.5t95 -65.5t65.5 -96t24.5 -118t-24.5 -118t-65.5 -95t-95.5 -64.5t-117.5 -23.5q-64 0 -118 23.5t-95 64.5t-64.5 95.5t-23.5 117.5z" />
<glyph unicode="1" horiz-adv-x="2252" d="M639 727v273h182q0 116 4.5 199t21.5 138t54 88t102.5 49.5t165 20.5t242.5 4v-272q-94 0 -148.5 -4.5t-82 -17.5t-35 -41t-7.5 -76v-88h273v-273h-273v-725h-317v725h-182z" />
<glyph unicode="2" d="M226 358q0 76 47 130t117.5 90t152 55t151.5 19q-12 33 -34.5 65.5t-26.5 68.5q-60 0 -119.5 16.5t-105.5 55.5q-51 43 -75 100.5t-24 118.5q0 88 44.5 170t119.5 127q41 24 94 40t112 25t119 12t114 3q72 0 126 -4t70 -8q0 -51 -47 -68q-26 -10 -53 -12q-28 -2 -54 -6 q51 -33 72.5 -93.5t21.5 -124.5q0 -66 -20 -122q-10 -28 -38 -57t-56.5 -57t-49.5 -56q-22 -30 -22 -56q0 -28 29 -55q37 -33 76 -65.5t70.5 -69.5t51 -82t19.5 -100q0 -104 -53 -186t-150 -126q-56 -24 -127.5 -38.5t-146.5 -14.5q-56 0 -111 9.5t-104.5 29.5t-88 52 t-63.5 77q-38 75 -38 137zM440 358q0 -68 56.5 -121t177.5 -53q62 0 110 17.5t80.5 47t50 66.5t17.5 74q0 68 -56 121q-58 53 -178 53q-62 0 -110 -17.5t-80.5 -47t-50 -66t-17.5 -74.5zM510 1170q0 -47 14 -95.5t39 -88.5t60 -64.5t75 -24.5h17.5t17.5 4t16.5 5.5t10.5 3.5 q6 2 8 2q-12 -4 -20 -7q-8 -2 -13.5 -4t-1.5 0q56 16 81.5 63.5t25.5 106.5q0 47 -14.5 95t-40 87t-60.5 64t-76 25h-17.5t-17.5 -4q-56 -16 -80 -62t-24 -106zM1178 1067v113h262v264h112v-264h262v-113h-262v-262h-112v262h-262z" />
<glyph unicode="3" horiz-adv-x="2045" d="M78 356q66 -53 146.5 -78.5t166.5 -25.5q110 0 218 47q107 47 185 147q-10 -4 -18 -4h-18q-47 0 -78 23t-31 55q0 22 15.5 44t54.5 42q-35 -6 -61 -6q-74 0 -120 33t-69 67q20 28 49 43t78 23q-112 16 -164 61q-54 45 -72 111q28 10 62 18t55 8q-51 20 -87 48t-58.5 59 t-32.5 62t-10 59q178 -47 299.5 -89t218.5 -81q35 -14 74 -42t85 -62q18 72 42 143t55 137t70 122t91 97q-4 -35 -24 -61q60 66 146 88q-2 -30 -34 -52t-60 -38l28 14t45 21.5t49.5 21t40.5 9.5q15 0 21 -11q2 -4 2 -10q0 -12 -15.5 -23.5t-36 -20.5t-40 -16.5t-25.5 -9.5 l-43 -21q30 6 60 7q62 0 120 -22.5t109 -60.5t91 -91t62 -115l16 -43q10 -4 21 -4h23q24 0 52 5t52 12.5t45 16.5t33 17q-16 -53 -66 -92q-50 -40 -132 -56q22 -6 50.5 -9t59.5 -3q63 0 112 12q-28 -39 -80 -70.5t-142 -39.5q-22 -146 -101.5 -271.5t-197 -221 t-265.5 -155.5t-305 -77q-53 -6 -105 -6q-192 0 -377 74.5t-335 240.5z" />
<glyph unicode="4" horiz-adv-x="2050" d="M266 1336q0 52 20 86q22 36 60 56q39 22 90 23q50 -1 92 -23q39 -22 60 -56q22 -38 22 -86q0 -42 -22 -82q-22 -37 -60 -58q-41 -22 -94 -22q-49 0 -88 22q-44 22 -60 58q-20 36 -20 82zM274 0v1044h326v-1044h-326zM786 1044h283l15 -143h8q14 25 42 55q30 30 70 54 q38 26 92 42q56 16 117 17q83 -1 149 -27q68 -26 120 -82q51 -58 77 -141q28 -87 29 -199v-620h-326v580q0 72 -16 118q-16 49 -54 78q-34 26 -94 31q-44 -3 -78 -19q-32 -18 -54 -46q-10 -12 -19 -27t-15 -31q-4 -12 -8 -37q-2 -10 -3 -21.5t-1 -23.5v-602h-324v712 q0 47 -1 93.5t-3 87.5q-4 87 -6 151z" />
<glyph unicode="5" horiz-adv-x="2050" d="M135 1000q60 53 119 105q58 51 116 105q154 135 238 146l23 2q169 0 211 -260q22 -150 37.5 -242t25.5 -129q56 -245 121 -245q50 0 152 159q100 159 110 243l2 26q0 114 -112 114q-53 0 -119 -26q114 378 438 378h17q234 -10 233 -288v-36q-8 -236 -330 -644 q-330 -428 -557 -428q-140 0 -238 260q-33 121 -64.5 239.5t-65.5 237.5q-72 262 -156 262q-14 0 -125 -76z" />
<glyph unicode="6" d="M236 750q0 164 62 308t170 251.5t251 169t307 61.5t307 -61.5t251 -169t170 -251.5t62 -308t-62 -307.5t-170 -251t-251 -170t-307 -62.5q-60 0 -116 8.5t-109 24.5q22 35 44.5 78.5t34.5 91.5q4 12 12 48l20 72q10 43 24 97q22 -41 76 -70q52 -29 118 -29q94 0 173 41 t135.5 114t87 171t30.5 215q0 88 -35.5 170t-101 145.5t-157.5 101.5t-205 38q-142 0 -248.5 -46t-177 -118t-105 -160t-34.5 -172q0 -102 39 -184t123 -117q8 -4 14 -4q20 1 24 25q4 10 8 30.5t8 32.5q4 13 4 17q0 10 -16 26q-22 28 -36.5 65t-14.5 91q0 74 26.5 142.5 t78 120.5t123 83.5t161.5 31.5q160 0 245 -87t85 -215q0 -86 -18.5 -163t-51 -134t-78.5 -91t-104 -34q-53 0 -91 35t-38 87q0 10 4 32q8 37 21.5 75.5t23.5 75.5t18.5 70t8.5 59q0 47 -26.5 82.5t-82.5 35.5q-64 0 -108 -58t-44 -146q0 -28 4.5 -51t8.5 -39q7 -20 13 -35 q-24 -105 -46 -193q-16 -76 -33.5 -145t-21.5 -94q-10 -35 -12.5 -73t-2.5 -72v-36q-104 45 -191 119t-149.5 167.5t-97 204.5t-34.5 233z" />
<glyph unicode="7" d="M356 137q0 -45 17.5 -85t46.5 -68q28 -28 68 -46t86 -18h902q45 0 84 18q40 18 70 46q28 28 46 68t18 85v471q0 45 -18 85.5t-46 68.5q-30 28 -69 46t-85 18h-902q-45 0 -85.5 -18t-68.5 -46t-46 -68t-18 -86v-471zM459 594v86h279v-86h-95v-502h-90v502h-94zM557 1583 h92l57 -235l64 235h92l-106 -344v-241h-90v231zM738 162v362h79v-332q0 -14 4 -22q7 -6 17 -6q12 0 22 8q14 8 27 24v328h79v-432h-79v48q-21 -26 -47 -42q-28 -14 -48 -14q-26 0 -40 20q-14 16 -14 58zM858 1104q0 -56 31 -86q20 -24 55 -31h60q30 6 57 29q31 30 31 86v223 q0 56 -31 86q-17 23 -57 29h-58q-30 -6 -57 -29q-30 -35 -31 -88v-219zM940 1098v233q0 14 8 27q8 10 25 10t27 -10t10 -27v-37v-196q0 -18 -10 -29q-10 -10 -27 -10q-14 0 -25 10q-8 13 -8 29zM1044 92v588h82v-190q8 10 16.5 17t18.5 13q20 10 37 10q38 0 60 -28 q18 -28 18 -80v-242q0 -46 -18 -70t-56 -24q-24 0 -41 8q-10 6 -18.5 13t-16.5 18v-33h-82zM1126 174q6 -8 19 -16q13 -4 21 -4q12 0 22 10q6 8 6 28v224q0 24 -8 34q-11 10 -25 11q-12 -1 -18 -5q-7 -2 -17 -12v-270zM1159 1065q1 -33 15 -57q10 -14 24 -17h37q13 3 29 13 q20 10 44 38v-46h82v434h-82v-330q-8 -12 -24 -23q-14 -10 -22 -10q-10 0 -17 6q-4 13 -4 23v334h-82v-365zM1338 213v195q0 58 34 92q33 36 88 36q56 0 84 -32q30 -34 31 -96v-111h-153v-82q0 -33 8 -47q6 -12 26 -12q18 0 29 10q6 12 6 49v31h84v-33q0 -69 -31 -101 q-30 -33 -90 -32q-56 0 -86 34q-30 37 -30 99zM1422 364h69v46q0 28 -8 38q-7 12 -27 13q-18 -1 -26 -13q-8 -10 -8 -38v-46z" />
<glyph unicode="8" d="M232 748q0 164 62 308t170 251.5t252 170t308 62.5q125 0 237.5 -36t208.5 -101v-760q0 -39 -27.5 -66.5t-68.5 -27.5t-68.5 27.5t-27.5 66.5v229q0 135 -60.5 195.5t-150.5 60.5h-391q-53 0 -99.5 -16t-82 -46t-56 -73t-20.5 -96q0 -28 7 -60t27.5 -60.5t55 -52.5 t90.5 -34q45 -8 76.5 -12t52.5 -11t30 -19q9 -14 9 -38q0 -22 -12 -34.5t-34 -18.5t-52.5 -7t-65.5 -1h-344q-12 47 -19 97t-7 102zM318 389q49 -96 122.5 -176t164.5 -137.5t198 -88t221 -30.5q164 0 308 62.5t252 170t170 251t62 307.5q0 140 -44 262.5t-122 224.5v-586 q0 -66 -23 -114.5t-61 -80.5t-88 -48.5t-104 -16.5q-53 0 -103.5 16.5t-88 48.5t-61 81t-23.5 114v240q0 26 -13.5 43.5t-34 25.5t-46.5 12q-26 3 -50 3h-114h-128q-58 0 -87 -15.5t-29 -54.5q0 -26 25.5 -36.5t64.5 -17.5t84 -15t84 -31t64.5 -66t25.5 -119 q0 -106 -79 -167.5t-201 -61.5h-346z" />
<glyph unicode="9" d="M80 440v625q0 17 10 21q4 2 10 2h296v216q0 16 10 21q6 2 12 2h166v-862q0 -19 -12 -23q-6 -4 -11 -2h-481zM262 580h113q4 -2 10 2q13 4 13 22v344h-118q-4 0 -11 -3t-7 -19v-346zM639 440v625q0 17 10 21q7 2 13 2h164v-623q0 -19 -11 -23q-6 -4 -10 -2h-166zM639 1188 v116q0 16 10 21q7 2 13 2h164v-115q0 -18 -11 -22q-6 -4 -10 -2h-166zM891 219v115q0 14 10 20q5 2 11 4h296v82h-317v625q0 17 10 21q5 2 11 2h482v-844q0 -18 -12 -23q-6 -4 -10 -2h-481zM1073 580h113q4 -2 10 2q12 4 12 22v344h-116q-4 0 -11.5 -3t-7.5 -19v-346z M1458 219v115q0 14 10 20q4 2 10 4h298v82h-318v625q0 17 10 21q4 2 10 2h484v-844q0 -18 -10 -23q-6 -4 -10 -2h-484zM1642 580h113q5 -2 11 2q10 4 10 22v344h-115q-4 0 -11.5 -3t-7.5 -19v-346z" />
<glyph unicode=":" horiz-adv-x="2056" d="M76 318v936q0 37 26.5 63.5t63.5 26.5h1002q35 0 61.5 -27t26.5 -63v-936h-607q5 20 5 30q0 43 -17 81t-45.5 66.5t-67 45t-82.5 16.5q-43 0 -80.5 -16.5t-66.5 -45t-45 -66.5t-16 -81q0 -20 2 -30h-160zM312 348q0 53 38.5 92t91.5 39q56 0 94 -38.5t38 -92.5 q0 -53 -38 -92t-94 -39q-53 0 -91.5 39t-38.5 92zM385 348q0 -22 17.5 -39.5t39.5 -17.5q24 0 41 17.5t17 39.5q0 24 -16 41q-18 17 -42 17q-22 0 -39.5 -17t-17.5 -41zM1333 322v730h334q33 0 54.5 -6t41 -23t38.5 -48t49 -80q28 -45 50 -82q20 -33 36 -67t20 -52 q4 -20 4 -55v-76q0 -30 -1 -59q-1 -30 -1 -52v-50q0 -16 -13 -29t-33 -23t-40 -17t-35 -9q2 8 2 24q0 43 -16.5 81t-45 66.5t-66.5 45t-81 16.5t-80.5 -16.5t-66.5 -45t-45 -66.5t-16 -81q0 -18 2 -26h-91zM1444 727h370q-10 39 -30 84q-10 22 -22 47q-14 30 -26 51t-23 34 t-25 18q-16 5 -38 5h-206v-239zM1499 348q0 53 39 92t92 39t92.5 -38.5t39.5 -92.5q0 -53 -39 -92t-93 -39q-53 0 -92 39t-39 92zM1573 348q0 -22 16.5 -39.5t40.5 -17.5q22 0 40 17.5t18 39.5q0 24 -18 41t-40 17q-24 0 -40.5 -17t-16.5 -41z" />
<glyph unicode=";" horiz-adv-x="2052" d="M272 0v682h686v-682h-686zM272 819v682h686v-682h-686zM396 121h440v438h-440v-438zM396 940h440v438h-440v-438zM532 1082v161h162v-161h-162zM534 260v162h162v-162h-162zM1092 819v682h686v-682h-686zM1094 0v682h407v-135h275v-547h-270v272h-168v262h-107v-534h-137 zM1214 940h441v438h-441v-438zM1342 86v114h116v-114h-116zM1356 1082v161h162v-161h-162zM1602 375h114v117h-114v-117z" />
<glyph unicode="&#x3c;" horiz-adv-x="1705" />
<glyph unicode="=" d="M588 234v1032q0 49 18 91t51 74.5t75 51t92 18.5h400q49 0 91.5 -18.5t75.5 -51t51 -74.5q18 -41 18 -91v-1032q0 -49 -18 -91.5t-51 -75t-75 -51t-92 -18.5h-400q-49 0 -91.5 18.5t-75.5 51t-51 74.5t-18 92zM668 286h712v968h-712v-968zM870 1374q0 -32 33 -32t33 32 q0 33 -33 33t-33 -33zM872 152q0 -12 12 -22q12 -9 28 -9h224q16 0 28 9.5t12 21.5q0 14 -12 23t-28 9h-224q-16 0 -28 -9t-12 -23zM991 1374q0 -32 33 -32t33 32q0 33 -33 33t-33 -33zM1112 1374q0 -32 33 -32t33 32q0 33 -33 33t-33 -33z" />
<glyph unicode="&#x3e;" horiz-adv-x="1705" />
<glyph unicode="?" d="M465 125v1249q0 53 36.5 90t90.5 37h872q53 0 90.5 -36.5t37.5 -90.5v-1249q0 -53 -37 -89t-91 -36h-872q-53 0 -90 36t-37 89zM540 200h974v1213h-974v-1213zM977 104q0 -16 12.5 -29t30.5 -13t30.5 13t12.5 29q0 18 -12.5 32t-30.5 14t-30 -14q-13 -14 -13 -32z" />
<glyph unicode="@" d="M262 622q0 26 20 46l900 815q16 16 42 16q28 -1 48 -21l315 -348l-993 -900l-316 350q-16 20 -16 42zM692 123l994 899l92 -100q16 -20 16 -42q0 -30 -22 -48l-900 -816q-20 -16 -40 -16q-26 0 -48 20z" />
<glyph unicode="A" horiz-adv-x="2052" d="M-4 360v10q0 26 22.5 50t55 44t71.5 35t72 25t53.5 16.5t18.5 6.5q-72 4 -109.5 30.5t-37.5 63.5t32 69h-12q-14 0 -34 2.5t-36 7.5t-29.5 14.5t-15.5 25.5q0 24 26.5 41.5t59.5 30t58.5 18.5t23.5 6q-41 4 -61 20q-19 18 -19 39q0 34 51 60q64 30 170.5 42.5t282.5 16.5 q37 2 92 3t113.5 2t112 2t87.5 1q33 0 44.5 -12t11.5 -26q0 -18 -12 -27q78 -12 124 -28.5t80 -38.5q66 2 135.5 3t141.5 1q144 0 272.5 -7t206.5 -23q-18 -26 -41 -48q-20 -18 -51 -36t-72 -20q16 -20 22 -42q5 -22 5 -44q0 -16 -2.5 -32.5t-6.5 -26.5q-4 -15 -8 -25 l-53 14l-29 -42q-36 6 -82 12q-41 4 -99 8t-130 4q-121 0 -275.5 -15t-336.5 -61q-148 -37 -284 -90q-137 -53 -243 -102q-125 -58 -235 -121q7 13 15 23q4 10 9 20t5 18q0 12 -10 13q-8 2 -38 2q-33 0 -68.5 10.5t-43.5 56.5zM53 375q4 -43 32.5 -56.5t64.5 -13.5 q28 0 50 5q24 4 30 6t25 9t47 19t61 26q33 16 67 30q80 34 176 77q6 12 12 25q4 10 9.5 23t5.5 30q-1 9 -5 25q-12 43 -49 61.5t-65 28.5q-8 2 -25.5 7t-36 11t-31.5 13t-15 18q0 26 65 39q24 6 42.5 7t33.5 1l-5 -54l228 138q-102 -12 -194 -29q-39 -6 -80.5 -14.5 t-79 -17.5t-70 -18t-55.5 -19q-58 -24 -74.5 -50t-16.5 -42q0 -10 2.5 -14.5t2.5 -8.5q0 -2 4 -8.5t18.5 -13.5t40 -17t72.5 -18q62 -12 80 -33t18 -41q0 -8 -2 -15t-4 -12q-2 -6 -4 -10q-49 -17 -86 -31l-60.5 -22t-31.5 -12q-2 0 -5 -1t-7 -1q-8 0 -15.5 3t-7.5 13 q0 8 6.5 21t22.5 34q39 47 56.5 59.5t19.5 12.5q-2 0 -23 -6.5t-50.5 -16.5t-63 -24t-62.5 -34t-48.5 -42t-19.5 -47zM92 770q0 -28 20 -36q22 -7 44 -7q12 0 20 1t12 1q6 2 41 14.5t74 26.5l103 37q4 6 8 14q4 6 7 13.5t3 17.5l-2 10q-6 24 -26 37t-36 19q-10 4 -33.5 12 t-25.5 18q0 14 39 20q10 2 16 2.5t12 0.5h13l-2 -29l131 68q-56 -4 -108 -10q-45 -4 -90.5 -10.5t-71.5 -16.5q-35 -14 -45.5 -27.5t-10.5 -23.5v-8q0 -2 2 -2q0 -2 10 -12q9 -12 64 -28q33 -8 43.5 -20t10.5 -22q0 -6 -5 -15q-2 -4 -4 -6l-107 -33q-14 0 -14 10q0 12 19 31 q22 26 32.5 31.5t12.5 5.5q-2 0 -27 -5t-53 -16.5t-52 -27t-24 -35.5zM422 813q14 4 37 9.5t51 11.5l39 65l67 11l-34 -62l98 16l-10 16l63 132h-29q-14 0 -31 -1t-38 -3l19 -35l-15 -25l-67 -10l36 68q-22 -2 -40 -3q-20 -1 -36 -3q-18 -2 -34 -4l16 -21zM635 490 q22 10 65.5 22t89.5 24l60 124l121 24l-55 -114q28 8 54 14t46 10l41 10l33 6l-21 29l11 8q4 3 12 11l6 4q47 33 98 71.5t74 67.5q8 -23 8 -53q0 -47 -16.5 -76t-22.5 -39l101 16q16 2 33 4.5t36 4.5l33 73q6 0 14 2q16 5 31 5q20 0 39 -8q18 -10 18 -32q0 -16 -8 -34l37 2 l39 -2q12 0 28 -1t36 -3l52 104q12 0 21 -8q8 -6 15 -18q8 -14 8 -36q0 -24 -8 -50q26 -4 50 -8q24 -5 46 -9q2 11 6 23q4 10 6 22t2 28q0 28 -13.5 56.5t-52.5 38.5q56 2 90 13.5t52 23.5t24 23t8 15q-18 2 -38 6q-16 2 -39 4.5t-43 2.5q-26 -22 -54 -41.5t-51 -21.5l35 63 h-26h-30t-24 -2l-88 -160q0 18 -5 28.5t-11 16.5t-10 9t-2 3q4 0 14 4t20 12.5t18.5 20t8.5 27.5q-2 14 -12.5 23t-22.5 13.5t-23.5 6.5t-17.5 2q-16 2 -37.5 2h-46.5q-24 0 -47.5 -1t-42.5 -1h-43l37 -69l-31 -70q-4 16 -13 42t-31 52t-60 52q-36 26 -94 42q47 -30 67 -76 q-16 -37 -52 -74q-35 -36 -89 -84l70 170q-24 -2 -52 -6q-22 -4 -55 -7t-70 -7l37 -59l-22 -47l-122 -25l62 125q-39 -6 -72.5 -11t-62.5 -9l-61 -10l32 -36zM700 901q0 -20 14 -25q16 -6 32 -6h16q12 0 27.5 3t32 11.5t33.5 24t29 43.5q12 24 13 39q0 18 -13.5 24.5 t-29.5 6.5l-18 -2q-12 0 -28 -3t-33 -11t-35 -24t-30 -42q-10 -20 -10 -39zM844 880l76 9l20 41l56 4q26 4 43.5 18t27.5 35q2 4 4 9.5t2 9.5q-1 20 -33 20l-102 -2l-58 -119zM1472 788l25 56l78 -2q0 -4 -2 -13.5t-11.5 -18.5t-26.5 -15.5t-48 -6.5h-15z" />
<glyph unicode="B" horiz-adv-x="2045" d="M666 0l672 672l-672 674h42l674 -674l-674 -672h-42z" />
<glyph unicode="C" horiz-adv-x="2045" d="M666 672l672 674h44l-674 -674l674 -672h-44z" />
<glyph unicode="D" horiz-adv-x="2045" d="M463 612v277h424v421h277v-421h421v-277h-421v-424h-277v424h-424z" />
<glyph unicode="E" horiz-adv-x="2045" d="M463 612v277h1122v-277h-1122z" />
<glyph unicode="F" horiz-adv-x="2045" d="M620 1080h150l258 -279l256 279h150l-408 -441z" />
<glyph unicode="G" horiz-adv-x="2045" d="M316 490l710 770l706 -764l-86 -94l-616 669l-618 -671z" />
<glyph unicode="H" horiz-adv-x="2045" d="M608 410q74 4 138 11q62 7 130 15q-8 37 -29 74t-51 67.5t-65.5 52.5t-74.5 30zM692 715l512 505q92 -10 161 -77.5t77 -165.5l-506 -493q-30 92 -91 147t-153 84z" />
<glyph unicode="I" horiz-adv-x="2252" d="M618 448l361 361l-361 361l42 40l360 -360l360 360l42 -40l-361 -361l361 -361l-42 -40l-360 360l-360 -360z" />
<glyph unicode="J" d="M248 1233v37q0 16 10 26t26 10h279q22 0 33 -22l258 -794h912q38 0 38 -40v-32q0 -16 -11 -27.5t-27 -11.5h-404h-271.5h-166h-85t-32.5 1l-6 1q-24 1 -35 23l-256 792h-226q-16 0 -26 10t-10 27zM670 1274q0 16 12 24t24 8h1060q16 0 27 -10t11 -26v-664q0 -16 -11 -27 t-27 -11h-812q-16 0 -24 11t-14 27l-242 650q-4 12 -4 18zM762 226q0 39 26.5 65.5t65.5 26.5t66.5 -26.5t27.5 -65.5t-27.5 -66t-66.5 -27t-65.5 26.5t-26.5 66.5zM1610 226q0 39 26.5 65.5t65.5 26.5t65.5 -26.5t26.5 -65.5t-26.5 -66t-65.5 -27t-65.5 26.5t-26.5 66.5z " />
<glyph unicode="K" d="M248 1233v37q0 16 10 26t26 10h279q22 0 33 -22l258 -794h912q38 0 38 -40v-32q0 -16 -11 -27.5t-27 -11.5h-404h-271.5h-166h-85t-32.5 1l-6 1q-24 1 -35 23l-256 792h-226q-16 0 -26 10t-10 27zM670 1274q0 16 12 24t24 8h1060q16 0 27 -10t11 -26v-664q0 -16 -11 -27 t-27 -11h-812q-16 0 -24 11t-14 27l-242 650q-4 12 -4 18zM762 226q0 39 26.5 65.5t65.5 26.5t66.5 -26.5t27.5 -65.5t-27.5 -66t-66.5 -27t-65.5 26.5t-26.5 66.5zM766 1206l30 -86q4 -4 6.5 -8t8.5 -4h932q14 0 14 12v86q0 12 -14 12h-963q-14 0 -14 -12zM858 981l31 -86 q6 -13 14 -13h838q14 0 14 13v86q0 13 -14 13h-869q-14 0 -14 -13zM942 754l31 -84q6 -14 14 -14h747q14 0 15 14v84q-1 14 -15 14h-778q-14 0 -14 -14zM1610 226q0 39 26.5 65.5t65.5 26.5t65.5 -26.5t26.5 -65.5t-26.5 -66t-65.5 -27t-65.5 26.5t-26.5 66.5z" />
<glyph unicode="L" d="M612 446q0 10 4 28t10 38q12 -8 30 -22q18 -16 34 -42q-20 -8 -38 -13t-28 -5q-6 0 -8 2q-4 4 -4 14zM660 555q8 24 17 48.5t17 45.5t18 45q10 -4 26 -12q24 -17 67 -56q22 -20 33.5 -35t19.5 -26q8 -12 12 -20q-22 -12 -44 -23q-20 -10 -45 -20t-48 -20 q-18 30 -38.5 47.5t-34.5 25.5zM712 410l84 38h480l-68 -38h-496zM756 738q0 4 6 8l362 364l158 -158l-210.5 -210.5l-108.5 -108.5l-41 -41l-6 -6q-4 10 -19 30q-15 22 -49 54q-35 35 -58 49q-24 15 -34 19zM1166 1151l52 53q14 14 34 14q16 0 34 -14l90 -90q14 -18 14 -34 q0 -18 -14 -34l-53 -52z" />
<glyph unicode="M" d="M332 1292q0 28 20 49t50 21h118q6 0 21.5 -1t32 -5t30.5 -13.5t18 -25.5l40 -147h984q28 0 49 -21t21 -49v-14q0 -6 -4 -23l-88 -377q-4 -24 -24 -42t-46 -18h-753l25 -94h696q28 0 49 -21t21 -50v-13q0 -28 -21 -48.5t-49 -20.5h-766q-28 0 -46 19.5t-26 49.5l-194 770 h-88q-28 0 -49 21t-21 53zM700 1016l60 -236h729l55 236h-844zM752 219q0 45 30.5 77t77.5 32q45 0 76.5 -32t31.5 -77t-31.5 -77t-76.5 -32q-47 0 -77.5 32t-30.5 77zM1250 219q0 45 31.5 77t76.5 32t76.5 -32t31.5 -77t-31.5 -77t-76.5 -32t-76.5 32t-31.5 77z" />
<glyph unicode="N" d="M289 192v138q0 22 15.5 36.5t37.5 14.5h1360q22 0 37.5 -14.5t15.5 -36.5v-138q0 -22 -15.5 -37t-37.5 -15h-1360q-22 0 -37.5 15t-15.5 37zM289 672v139q0 22 15.5 36.5t37.5 14.5h1360q22 0 37.5 -14t15.5 -37v-139q0 -22 -15.5 -37t-37.5 -15h-1360q-22 0 -38 14 q-15 16 -15 38zM289 1153v137q0 22 15.5 38t37.5 16h1360q22 0 37.5 -15.5t15.5 -38.5v-137q0 -22 -15.5 -37.5t-37.5 -15.5h-1360q-22 0 -37.5 15t-15.5 38z" />
<glyph unicode="O" d="M454 260v960q0 51 35 86.5t87 35.5h894q49 0 85.5 -35t36.5 -87v-960q0 -51 -36 -85.5t-86 -34.5h-894q-51 0 -86.5 34.5t-35.5 85.5zM608 289h830v901h-830v-901zM742 -794q0 22 17 39t42 17h423q24 0 42 -17t18 -39v-460q0 -22 -17 -39t-43 -17h-423q-24 0 -41.5 17 t-17.5 39v460zM754 746v48q0 41 27.5 70t66.5 29h60q-33 12 -54.5 41.5t-21.5 67.5q0 47 33.5 79.5t80.5 32.5t81 -33t34 -79q0 -37 -21.5 -67t-56.5 -42h59q39 0 66.5 -28.5t27.5 -70.5v-52h-221t-113 1t-42 1zM756 438v74h532v-74h-532zM756 588v76h532v-76h-532z M815 -809v-430h395v430h-395zM884 -1000q0 20 14 34t32 14h28q-16 6 -26 20t-10 31q0 22 16 38.5t39 16.5q22 0 37.5 -16t15.5 -39q0 -37 -36 -51h28q18 0 32 -14q13 -14 13 -34v-24h-159q-20 0 -24 2v22zM887 -1061h251v-37h-251v37zM887 -1132h251v-38h-251v38z" />
<glyph unicode="P" horiz-adv-x="2045" d="M282 375v975q0 62 43 104.5t105 42.5h96q62 0 106 -43q44 -42 44 -104v-975q0 -62 -44 -104.5t-106 -42.5h-36v-128q0 -20 14 -34.5t34 -14.5h394q20 0 33.5 14.5t13.5 34.5v128h-63q-62 0 -105 43t-43 104v975q0 62 43 104.5t105 42.5h698q62 0 106 -43q44 -42 44 -104 v-975q0 -62 -44 -104.5t-106 -42.5h-582v-128q0 -43 -29.5 -72.5t-70.5 -29.5h-394q-41 0 -70.5 30t-29.5 72v128h-8q-62 0 -105 43t-43 104zM938 1229q0 -43 43 -75t105 -32h358q62 0 106 32t44 75q0 45 -44 76t-106 31h-358q-62 0 -105 -31t-43 -76zM1012 400h118v69h-118 v-69zM1012 563h118v70h-118v-70zM1012 725h118v69h-118v-69zM1012 887h118v69h-118v-69zM1210 400h121v69h-121v-69zM1210 563h121v70h-121v-70zM1210 725h121v69h-121v-69zM1210 887h121v69h-121v-69zM1411 400h121v69h-121v-69zM1411 563h121v70h-121v-70zM1411 725h121 v69h-121v-69zM1411 887h121v69h-121v-69z" />
<glyph unicode="Q" horiz-adv-x="2050" d="M580 217v1059q0 45 17 86t48 71.5t71 48t87 17.5h444q45 0 86 -17.5t72 -48t48 -71.5t17 -86v-1059q0 -47 -17 -87t-48 -71t-72 -48t-86 -17h-444q-47 0 -87 17t-71 48t-48 71t-17 87zM690 719h670v501h-670v-501zM756 146h112v94h-112v-94zM756 312h112v96h-112v-96z M756 479h112v97h-112v-97zM914 1331h222v55h-222v-55zM979 146h113v94h-113v-94zM979 312h113v96h-113v-96zM979 479h113v97h-113v-97zM1202 146h111v94h-111v-94zM1202 312h111v96h-111v-96zM1202 479h111v97h-111v-97z" />
<glyph unicode="R" horiz-adv-x="2045" d="M140 -2q0 194 45 341t128 244t203 146q118 49 268 49q296 0 463 -186q-154 -66 -235.5 -217.5t-81.5 -376.5h-790zM446 1190q0 64 25 121t67 100t98 67.5t122 24.5q64 0 121 -24.5t100 -67.5t67.5 -100t24.5 -121q0 -66 -24.5 -122t-67.5 -99t-100 -68t-121 -25 q-66 0 -122 25t-98 68t-67 99t-25 122zM1036 -2q0 264 116.5 397t321.5 133t321 -133t116 -397h-875zM1245 805q0 45 16.5 84t45.5 67.5t67.5 45t81.5 16.5t82 -16.5t67.5 -45t45 -67.5t16.5 -84q0 -43 -16.5 -82t-45 -68t-67.5 -45t-82 -16t-81.5 16t-67.5 45t-45.5 68 t-16.5 82z" />
<glyph unicode="S" horiz-adv-x="2252" d="M432 127v1095q0 53 40 92.5t96 39.5h114v-68h-47q-41 0 -70 -28.5t-29 -69.5v-643q0 -39 28 -68t71 -29h163q22 0 38 -14t20 -36v-183q2 -41 32 -66.5t70 -25.5h453q41 0 70 29.5t29 70.5v965q0 41 -29 69.5t-70 28.5h-69v68h141q56 0 94.5 -39t38.5 -93v-1095 q0 -53 -39 -91t-94 -38h-915q-56 0 -96 38t-40 91zM555 456q0 -4 7.5 -15t17.5 -24t22 -27q12 -16 22 -28q2 -4 4.5 -5t4.5 -3l131 -143q6 -10 20 -20.5t32 -18.5t32 -13t18 -5q0 4 -8 13t-17 24.5t-17.5 36t-8.5 48.5v62q0 33 -22.5 54.5t-52.5 21.5h-56q-28 0 -51 7 t-38 15t-25.5 14t-14.5 6zM643 606v74h779v-74h-779zM643 784v72h779v-72h-779zM643 960v72h779v-72h-779zM725 1227v133q0 26 18.5 45t46.5 19h109q4 33 42 55t73 22q16 0 35.5 -6t36 -16.5t28.5 -24.5t14 -30h109q26 0 44.5 -19t18.5 -45v-133h-575zM964 1411 q0 -20 14 -33.5t34 -13.5t33.5 13t13.5 34q0 20 -13.5 33.5t-33.5 13.5t-34 -13t-14 -34z" />
<glyph unicode="T" horiz-adv-x="2045" d="M352 774q0 98 29 174t76 127t106 78t125 27q96 0 186 -61.5t148 -190.5q53 125 145.5 185.5t190.5 60.5q64 0 123 -26t105 -76t75 -125t29 -173q0 -94 -40 -159.5t-98.5 -115t-127 -88.5t-126.5 -77q-53 -37 -100 -79t-84 -83t-60.5 -75.5t-29.5 -55.5q-6 20 -29.5 55 t-60.5 74t-85 81q-47 43 -105 79q-60 37 -127.5 75.5t-127 89t-98.5 117t-39 162.5z" />
<glyph unicode="U" horiz-adv-x="2045" d="M366 950q0 66 27 124t71 103t101 71t121 26q90 0 181 -63t157 -213q66 150 157 213t181 63q62 0 119 -26t101 -71t71 -103t27 -124q0 -51 -18 -104.5t-58 -105.5q-156 -192 -265.5 -327t-179.5 -221q-82 -100 -135 -164q-49 64 -131 164q-70 86 -179 220 q-110 136 -270 330q-41 51 -60 104q-18 52 -18 104z" />
<glyph unicode="V" horiz-adv-x="2050" d="M702 752l486 754h156l-486 -754l486 -752h-156z" />
<glyph unicode="W" horiz-adv-x="2050" d="M702 0l486 752l-486 754h156l486 -754l-486 -752h-156z" />
<glyph unicode="X" horiz-adv-x="862" d="M84 1206q6 51 53 84q46 31 94 31q25 0 51 -8q58 -18 107 -78q29 -30 51 -71q12 28 25 52q89 168 195 178q7 1 13 1q50 0 79 -41q22 -33 22 -84v-8q0 -74 -34 -178q-32 -104 -82 -185q-24 -41 -52 -67q-38 -38 -76 -42h-6q-27 0 -68 15q-33 14 -73 39q-86 48 -162 118 q-89 82 -121 152q-17 38 -17 73q0 10 1 19z" />
<glyph unicode="Y" horiz-adv-x="2050" d="M291 616q4 24 16.5 48t22.5 46q2 12 4 34l-1 157q0 90 71 125v15v16q-6 12 -1 21.5t3 21.5q10 10 11 27.5t15 21.5h29q10 21 14 23q0 38 41 80q12 10 26 19q16 9 28 19q35 16 70.5 28.5t61.5 39.5q6 6 11.5 15t13.5 19q17 26 17 32q0 28 19 23t17 -23q-22 -22 -40 -60 q-20 -12 -34 -41q-16 -14 -25 -32.5t-15 -34.5q-48 -76 -88 -160q-12 -8 -10 -16q37 -10 72 -12q36 -2 70 -16q10 -6 17 -14h61h64q2 4 2 6q-4 8 -16 0h-3q-43 0 -53 60q-2 4 -8 22q-16 18 -4 24q12 8 26 20q-4 37 -4 43.5v13.5q14 20 4 45q0 59 74 59h2q2 -2 7 -3t10 -1 q6 2 21.5 8.5t23.5 12.5h11h11q37 -14 58 -19q4 -11 10 -21q12 4 46 10q34 4 28 -26q-10 -2 -23 -2q5 -8 11 -12q0 -10 -6 -18q-4 -8 0 -19q10 -4 28 -12q14 2 20 6q4 -10 -8 -23.5t-8 -21.5q2 -2 6 -3t6 -7q0 -4 2 -4t5 2t5 6q10 26 17 34l15 48l20 26q20 20 46 39t48 39 q0 4 14 12q14 26 21 31q-4 18 12 37q22 0 22.5 -19.5t12.5 -29.5q4 -7 4 -17q6 0 10 19t23 12q-3 -33 -21 -61q28 -10 8 -31q32 0 76 39q8 0 10 -2q16 20 36 41q2 8 6 14.5t8 16.5h7h9q-4 4 6 -10q0 -16 6 -19q-12 -45 -26 -70h2h2q14 6 47 29q6 0 8 -8q-7 0 13 6 q-2 -10 -21 -37q-13 -3 -25 -23q-8 2 23 -2q-1 -18 -51 -40q8 -6 20 -2t18 -4q-12 -12 -20 -28q4 -8 27 -2.5t33 7.5l10 -5v-2v-2q-26 -36 -58 -54q-20 0 -30 -7v-1v-1q22 -2 26 -6q-6 -22 -32 -29q-28 -8 -48 -14q0 -4 2 -8t2 -6q-16 -10 -28 -25t-33 -21q-8 0 -25 6 q-16 4 -20 -2q10 -14 52 -20q10 -16 2 -24q-8 -2 -13 -6q21 -8 25 -15q-4 -27 -42 -33q0 -4 -1 -11t-1 -13h-22q-4 0 -5 1t-1 3q-8 -4 -8 -12q6 -6 -2 -17q-14 -6 -28 2.5t-24 12.5q-2 -28 -20 -31q-4 4 -10 4q-2 -21 -4 -25q-24 0 -47 12t-41 -8q10 -30 46 -42 q41 -8 84.5 -25t61.5 -55q4 -26 8 -42q22 -20 31 -40q22 -8 43.5 -19.5t46.5 -17.5q3 0 17 14q6 4 13 9.5t15 11.5q28 2 59 2h62q19 28 41 28q18 0 37 -18q6 -18 14 -31q20 -28 57 -69q22 -26 22 -50q0 -15 -9 -30q-9 -4 -21 0v-2h-2q10 -12 -8 -14t-22 12q-6 24 -37 38.5 t-49 30.5q-18 -6 -36 -17.5t-34 -19.5q-45 -22 -78 -30q-76 -37 -72 -37q-39 4 -55 18q-82 11 -166 61q-27 0 -31 -22l-9 -9t-33 -42q-41 -33 -70 -47q-24 -26 -5 -56t29 -53v-33.5t-6 -33.5v-6v-6q6 -20 4 -44t10 -42q18 -6 20.5 -29t-9.5 -35q-2 -2 -5.5 -3t-5.5 -1 q-18 2 -28 4q-12 -8 -26 -15q-16 -7 -28 -14q-28 -35 -38 -41q-29 -4 -66 -4q-30 10 -6 41q8 4 18.5 11.5t20.5 11.5q12 18 21 38q10 20 24 36q-6 28 -23.5 56t-27.5 54q-6 26 -14.5 56t-26.5 50q-6 14 -6 38q12 45 22 86.5t39 80.5q1 20 11 23q0 10 6 19t6 17 q-28 14 -40 36t-22 50q-18 12 -22 21q-16 3 -37 19q-23 24 -29 30h-32.5h-104.5q-20 8 -49 41q-10 1 -20 11q-28 -8 -44 8q0 18 11.5 21t19.5 17q12 0 23.5 1t21.5 3q-10 2 -25.5 2t-25.5 7q0 2 -1 3t-1 5q14 20 47 10t47 -20q2 -6 7.5 -12.5t11.5 -12.5q20 -2 40 4 q22 6 42 10q-4 34 -13 42q-55 10 -79 16q-18 -3 -36 -3l-30 2q-34 5 -66 7q-12 8 -20 11t-39 22q-7 7 -25 21q-2 -2 -26 -36q-33 -56 -62 -108q-30 -50 -61 -102q-3 -6 -21 -38q-8 -20 -21 -59t-42 -37zM362 748q8 12 14.5 24t16.5 22q14 24 26.5 47t26.5 48q14 30 33 59 q19 30 27 64q-8 4 -10 4q-12 0 -22 -2q-12 -2 -30 -2q0 -6 -2 -16q-6 0 -10 -2.5t-8 -2.5q-10 -11 -26 -35q-20 -37 -26 -96q-2 -6 -2 -30q-6 -56 -8 -82zM522 1149q10 -17 4 -59q10 -2 21 -6h3q3 2 5 2q30 56 63.5 111t61.5 113q-2 0 -14 -8q-35 -22 -66 -38 q-30 -18 -51 -50q-20 -14 -27 -65zM824 1288h4q0 4 -2 6t-2 4v-10zM830 1306q10 6 14 7h13h15q-11 6 -20 6q-14 0 -22 -13zM832 1278l2 -2h4v1v1h-6zM1024 1063q11 -7 35 -21h7h7q12 4 25 18q14 14 26 24q2 4 -6 44q-16 0 -30 -2q2 -2 18 -12q6 -10 6 -20q-6 0 -22 4l-2 -2 h-13q-8 -8 -8 -12q2 0 5 1q4 1 8 1l6 -13q-16 -8 -32 -9t-30 -1z" />
<glyph unicode="Z" />
<glyph unicode="[" horiz-adv-x="2045" d="M430 692v254q0 18 13 30.5t30 12.5h459v-340h-459q-16 0 -29.5 12.5t-13.5 30.5zM510 43v537h422v-580h-377q-18 0 -31.5 12t-13.5 31zM568 1342q0 32 14 54q22 39 71 72t105 33q68 0 122 -55q43 -43 80.5 -99.5t63.5 -107.5q26 51 64 107.5t82 99.5q50 56 122 55 q56 0 104 -33t70 -72q16 -26 17 -56q0 -47 -33 -95q-22 -35 -58 -68.5t-82 -60.5q-53 -30 -106 -38q-54 -9 -84 -9q-20 0 -47 2q-27 3 -49 13q-22 -10 -49 -12.5t-47 -2.5q-30 0 -83 8.5t-105 38.5q-45 26 -81.5 60t-58.5 69q-32 47 -32 97zM656 1342q0 -22 18 -50 q36 -60 108 -100q41 -22 82.5 -29.5t63.5 -7.5q12 0 21 1t17 1q-22 49 -62 115t-87 112q-26 28 -59 29q-33 0 -61.5 -21.5t-38.5 -39.5q-2 -2 -2 -10zM1082 1157l38 -2q24 0 66 7q42 8 80 30q35 20 64.5 46t45.5 54q18 26 18 50q0 8 -2 10q-12 18 -40 40q-28 21 -60 21 q-33 -1 -59 -29q-47 -47 -89 -112.5t-62 -114.5zM1118 0v580h422v-537q0 -18 -12 -30.5t-31 -12.5h-379zM1118 649v340h459q18 0 30.5 -12.5t12.5 -30.5v-254q0 -18 -12 -30.5t-31 -12.5h-459z" />
<glyph unicode="\" horiz-adv-x="2050" d="M221 408v239q0 16 11.5 27.5t27.5 11.5h162q22 80 74 150q50 68 124 122l-22 201l146 -131q140 58 296 58q123 0 232.5 -36t194.5 -97.5t139 -144.5q53 -84 63 -180q28 12 46.5 32t31.5 38q15 22 23 46q6 20 26 20l8 -2q20 -6 21 -24l-3 -9q0 -2 -8 -22.5t-25 -46 t-46 -51t-72 -39.5q-4 -98 -51 -184t-127 -152v-195q0 -16 -11.5 -27.5t-27.5 -11.5h-135q-16 0 -27.5 11t-11.5 28v80q-56 -16 -115 -26.5t-125 -10.5q-53 0 -104.5 7t-97.5 19v-69q0 -39 -40 -39h-132q-16 0 -28 11t-12 28v166q-22 16 -44 33q-22 18 -40 38q66 12 109 34 t70 43.5t38 38t11 18.5q4 8 4 14q0 14 -14 22q-8 4 -14 4q-14 0 -25 -14q0 -2 -11.5 -16t-36 -33t-67.5 -37q-42 -18 -106 -24q-14 20 -29 42h-211q-16 0 -28 12q-11 12 -11 28zM590 764q0 -30 22 -52t52 -22t52 21.5t22 52.5q0 30 -22 52t-52 22t-52 -22t-22 -52zM819 1270 q0 47 18.5 89t50.5 73.5t74 50t88 18.5q47 0 89.5 -18.5t73 -50t49 -73.5t18.5 -89q0 -60 -28 -111q-102 28 -212 29q-102 0 -194 -24q-26 53 -27 106z" />
<glyph unicode="]" horiz-adv-x="2050" d="M164 456q0 8 2 13q4 14 15 21.5t24 7.5q8 0 12 -2l653 -216q-12 -42 -12 -82l-666 222q-14 4 -21 14t-7 22zM166 637l288 862l361 -119l-82 -248l156 -52l84 247l344 -117l-252 -747q-78 -20 -135 -82zM346 742q0 -14 14 -19l281 -95l6 -2q15 0 19 15l2 6q0 11 -14 19 l-288 94q-16 0 -18 -12zM408 801q0 -4 6 -10.5t12 -8.5q2 0 3 -1t5 -1q16 0 18 8l48 140l42 -14q6 0 7 4q2 2 2 10l-41 82q-4 6 -14 6l-82 -41q-6 -5 -6 -11t6 -8l40 -12zM600 738q0 -6 6 -11.5t12 -7.5q2 -2 10 -2q12 0 17 6l47 141l14 -6q4 -2 19 -6t17 0q2 2 2 12l-42 82 q-6 6 -8 6q-4 0 -6 -2l-82 -40q-6 -4 -6 -11q0 -6 6 -6l41 -15zM934 196q0 41 15 77t43 62.5t63.5 42t76.5 15.5q84 0 141.5 -57.5t57.5 -139.5q0 -84 -57.5 -141t-141.5 -57q-41 0 -76.5 15t-63.5 42t-43 64t-15 77zM1059 196q0 -30 21.5 -51.5t51.5 -21.5t52 21.5t22 51.5 q0 28 -21 50t-53 22q-30 0 -51.5 -21t-21.5 -51zM1120 196q0 12 12 13q14 -1 15 -13q-1 -14 -15 -14q-12 0 -12 14zM1186 465l268 821l394 68h8q32 0 38 -33q0 -39 -32 -47l-346 -60l-254 -776q-39 20 -76 27z" />
<glyph unicode="_" horiz-adv-x="2050" d="M119 618v422h1247v-186h-702q-22 0 -40 -16q-18 -18 -18 -44v-231h-432q-22 0 -37.5 16.5t-17.5 38.5zM119 1208v84q0 22 15.5 38t37.5 16h1141q22 0 37 -14q16 -14 16 -36v-88h-1247zM682 53v674q0 22 15 37.5t38 19.5h1141q22 0 37.5 -15t15.5 -38v-256l3 -419 q0 -22 -16 -38t-38 -18h-1140q-22 0 -38 15t-18 38zM819 133h963v41h-963v-41zM819 248h379v43h-379v-43zM1270 488q0 -76 53 -129.5t129 -53.5q53 1 94 25q39 -24 92 -25q78 0 131 53.5t53 129.5t-53 129t-131 53q-49 0 -92 -27q-43 27 -94 27q-76 0 -129 -54 q-53 -52 -53 -128zM1327 488q0 53 39 91.5t92 38.5q28 0 52 -12q-22 -22 -35 -53t-13 -65q0 -35 12 -66q14 -32 36 -54q-24 -12 -52 -12q-53 0 -92 39t-39 93zM1583 368q22 22 34.5 53t12.5 67q0 35 -12 65.5t-35 52.5q21 12 51 12q53 0 92.5 -39t39.5 -91q0 -53 -39 -92.5 t-93 -39.5q-30 0 -51 12z" />
<glyph unicode="`" horiz-adv-x="2050" d="M400 84v772q0 53 19 70.5t73 17.5h128v150q0 84 32 158.5t87 130t130 88t161 32.5q84 0 159 -32.5t130 -88t88 -130t33 -158.5v-150h135q53 0 68.5 -21.5t15.5 -74.5v-742q0 -53 -19.5 -80.5t-73.5 -27.5h-1082q-49 0 -66.5 19.5t-17.5 66.5zM778 944h504v150 q0 51 -19.5 97t-54 80.5t-80.5 54.5t-98 20q-53 0 -98 -20t-80 -54.5t-54 -80.5q-20 -45 -20 -97v-150zM932 366q0 -41 29.5 -70.5t70.5 -29.5t70.5 30t29.5 70v212q0 41 -29.5 70.5t-70.5 29.5t-70.5 -30t-29.5 -70v-212z" />
<glyph unicode="a" horiz-adv-x="2052" d="M274 602q0 51 38 88l759 764q47 47 111 47h438q66 0 111 -45q45 -44 45 -110v-441q0 -28 -12 -58q-12 -31 -34 -53l-764 -759q-38 -37 -88 -37q-52 0 -88 37l-478 481q-18 16 -28 40t-10 46zM536 637l74 -76l494 493l-74 76zM698 482l74 -74l494 493l-74 74zM860 328 l74 -76l494 494l-74 75zM1360 1218q0 -56 39.5 -95t95.5 -39t95.5 40t39.5 94q0 56 -40 96t-95 40q-56 0 -95.5 -40t-39.5 -96z" />
<glyph unicode="b" horiz-adv-x="2050" d="M248 878q0 110 61 209t168 171.5t249 114.5t304 42t305 -42t250 -114.5t168 -170.5q61 -100 61 -210q0 -90 -41 -171t-114.5 -148t-173.5 -117t-219 -74q-78 -94 -176.5 -149t-184.5 -86q-101 -37 -205 -49q88 74 121 144q33 68 37 128q-131 20 -242.5 68.5t-193.5 118 t-128 154.5t-46 181z" />
<glyph unicode="c" horiz-adv-x="2045" d="M35 352q0 72 34.5 134.5t98.5 111.5q41 33 84 52q44 20 78 32q42 12 82 20l636 113q39 51 93.5 84t101.5 69q37 28 37 48q0 16 -17.5 24t-35.5 14q-35 12 -57 34q-24 22 -30 38q-8 10 -17 39t-9 66q0 49 30 108.5t118 114.5q41 26 77.5 36.5t67.5 10.5q39 0 70 -13.5 t52 -30.5t32.5 -32.5t15.5 -19.5q14 -26 23.5 -55t9.5 -62q0 -37 -17.5 -77.5t-60.5 -86.5q-8 -6 -14 -13t-12 -13q-43 -41 -76.5 -75t-57.5 -65.5t-42 -64.5t-26 -72q-4 -15 -8 -35q10 -2 17.5 -3t17.5 -1q10 -2 18.5 -2h18.5q66 0 128 26t152 68q10 4 22 9.5t24 11.5 q60 27 110 27q37 0 67.5 -11.5t54.5 -27t39 -31.5t23 -28t19 -40t11 -67q0 -41 -22 -90t-83 -99q-53 -43 -99 -59.5t-88 -16.5q-33 0 -60.5 8.5t-47.5 21t-34 24.5t-20 18q-10 12 -23 42t-13 65q0 22 -3 42.5t-26 20.5q-10 0 -22.5 -4t-28.5 -14q-43 -28 -100 -70 q-58 -44 -113 -68q-45 -10 -97 -19t-104.5 -18t-101 -17.5t-82.5 -14.5l-813 -143zM58 4l32 88h211l-33 -88h-210zM406 4l30 88h211l-33 -88h-208zM712 0l181 377q18 2 57 9t87.5 16.5t103.5 19.5t109 20l-146 -350h209l-33 -88l-6 -4h-562zM1082 682q0 -26 18.5 -44 t44.5 -18q24 0 42.5 18t18.5 44t-18 44t-43 18q-26 0 -44.5 -18t-18.5 -44zM1218 1237q0 -35 19 -59q16 -20 41.5 -31t57.5 -11q58 0 102 34q33 22 52.5 57t19.5 69q0 37 -25 66q-35 41 -89 41q-51 0 -106 -39q-35 -26 -53.5 -59t-18.5 -68zM1417 4l33 88h211l-33 -88h-211z M1624 656q0 -33 16 -60q30 -45 96 -45q24 0 52.5 8.5t52.5 24.5q35 24 57.5 61t22.5 74q-1 30 -15 53q-38 58 -102 58q-24 0 -51 -8q-27 -10 -51 -26q-39 -26 -58.5 -65t-19.5 -75z" />
<glyph unicode="d" horiz-adv-x="2052" d="M278 744q0 94 52 166q51 74 133 102q28 106 82.5 195t129.5 154t165 100.5t190 35.5t190 -36.5t165 -101.5t129 -155q56 -90 84 -196q78 -33 126 -103.5t48 -160.5q0 -102 -60 -179t-152 -100l-9 -23q-9 -22 -27 -57t-48 -77t-71 -80q-51 -47 -123 -95.5t-146 -62.5 q-26 0 -30 28v8q0 24 22 34q40 12 82 34q35 16 77 44t79 62q58 56 89.5 110t41.5 81v557q-28 80 -75.5 147.5t-107.5 116t-132 74.5t-152 26q-84 0 -159 -29.5t-137 -81.5t-109 -124.5t-72 -158.5v-542q-58 0 -107.5 24t-86.5 62t-59 90t-22 112zM870 41v69q2 16 20 28 t42 14l108 -2q16 -2 32 -10q16 -10 16 -30v-71q-2 -16 -21 -27.5t-41 -11.5h-104q-16 2 -34 11t-18 30z" />
<glyph unicode="e" horiz-adv-x="2045" d="M186 268v144q4 4 4 10q0 12 4 20q4 6 20 8t34 2h74q24 -2 48 -2h46h40q28 4 49 11.5t35 17.5q56 33 94 101q38 66 66 132l52 112q30 68 63 133t73 123t91 104q51 48 119 74q41 16 86 24t102 8h222q4 12 4 31l-6 117q0 22 3 37.5t13 19.5q12 4 14 4q12 0 22 -7 q11 -8 21 -18l254 -254q12 -12 23.5 -25t11.5 -23q0 -16 -12.5 -29t-22.5 -23q-66 -66 -126.5 -124t-123.5 -124q-12 -10 -23.5 -21t-25.5 -11q-16 4 -20 19t-4 36v153h-197q-51 0 -90 -5t-70 -25q-30 -18 -56 -50t-47.5 -69t-40 -77t-32.5 -74q-35 -80 -70 -156t-75 -142 q-30 -49 -68.5 -91.5t-89 -75.5t-114.5 -52.5t-148 -19.5h-111q-10 0 -27.5 -2t-33.5 -2q-30 0 -42 10q-8 6 -10 20.5t-2 30.5zM186 1106v125q0 24 5 40.5t26 18.5q8 2 16.5 2h16.5h68q78 -4 146 -6t128 -24q78 -28 129 -77t92 -105q-37 -60 -67 -124q-31 -64 -60 -132 q-20 37 -41 75.5t-48 71.5t-63 54t-88 25h-194q-6 -2 -16 -2q-28 0 -38 9q-12 10 -12 49zM884 420q35 60 67.5 124t60.5 134q26 -47 49 -93.5t61 -80.5q20 -18 51 -34t66 -20h271v160q0 18 3 33t19 19q16 0 30 -12q13 -12 23 -22q119 -123 248 -247l22.5 -22.5t12.5 -26.5 q0 -12 -10 -24q-10 -14 -21 -24q-68 -66 -128.5 -126t-123.5 -125q-14 -14 -25.5 -23.5t-23.5 -9.5q-18 0 -22 16q-4 18 -4 40v151q-20 2 -40 2h-40h-130q-16 0 -33 1t-34 3q-127 11 -215 67q-41 26 -70.5 63.5t-63.5 76.5z" />
<glyph unicode="f" horiz-adv-x="2050" d="M426 0v1499h131v-1499h-131zM656 557v944l966 -426z" />
<glyph unicode="g" d="M334 240l2 26v312v56t-2 56v86q0 47 8 72q10 22 33 44t45 28q16 4 28 4h11q8 0 12 2l178 -8h21.5t21.5 4q16 4 34 25t32 38l114 141q16 18 33 36t25 36q22 45 27 100.5t28 102.5q14 28 41.5 58t69.5 34q10 2 30 2q60 0 106 -22.5t74 -57.5q30 -37 45 -89t15 -108 q0 -49 -10 -97q-10 -49 -31 -83h135q35 0 66 -6q74 -14 129 -75.5t55 -147.5q0 -47 -12 -81t-31 -66q6 -30 6 -58q0 -47 -12 -84q-4 -14 -11.5 -26t-9.5 -23v-73q-4 -39 -17 -68q-13 -30 -34 -56q0 -90 -37.5 -149t-101.5 -90q-41 -18 -91.5 -26.5t-102.5 -8.5 q-88 0 -175 16.5t-149 34.5q-60 18 -111 37q-28 10 -57 19q-30 9 -58 14l-34 2l-166 -7q-28 0 -51 2.5t-41 8.5q-22 8 -44 28.5t-30 44.5q-6 18 -6 40zM434 295q0 -30 22 -52t52 -22t52 21.5t22 52.5q0 28 -22 49.5t-52 21.5t-52 -21t-22 -50zM680 238q51 -4 96 -15.5 t88.5 -26t87.5 -29.5t92 -25q39 -10 94.5 -18t113.5 -8q60 0 111.5 12t78.5 40q16 16 23 45t7 61v22t-2 22q22 14 39 47t17 69q0 34 -14 60q22 14 33 44t11 64q0 26 -7 50t-23 40q35 6 52.5 44t17.5 73q-2 41 -30 72t-60 39q-34 6 -80 6l-187 -6h-38.5t-34.5 4q0 35 12 67.5 t27 64.5t29 64q14 31 18 68l2 28q0 66 -26 117t-77 51q-22 0 -41 -8q-18 -8 -27.5 -50t-17.5 -79l-2 -8q-10 -30 -19 -60q-10 -31 -22 -55q-10 -20 -32 -42q-22 -24 -40 -46q-35 -43 -64.5 -82.5t-68.5 -81.5l-6 -6q-22 -22 -51 -41.5t-70 -19.5h-10v-567z" />
<glyph unicode="h" d="M334 1132v97q0 18 1 35.5t5 31.5q8 24 30 44t44 28q16 6 38.5 8t49.5 2l170 -6l34 2q28 4 57 13t58 20q51 18 111 37q62 18 149 34.5t175 16.5q53 0 103 -8.5t91 -26.5q64 -30 102 -88q37 -60 37 -152q20 -26 33.5 -55t17.5 -67v-74q2 -10 9.5 -22.5t11.5 -26.5 q12 -37 12 -84q0 -27 -6 -57q18 -30 30.5 -65.5t12.5 -82.5q0 -86 -55 -147.5t-129 -75.5q-12 -2 -24 -3q-14 -1 -28 -1h-149q20 -37 30.5 -84t10.5 -97q0 -56 -14 -107.5t-46 -88.5q-28 -35 -75 -58.5t-107 -23.5q-18 0 -28 2q-41 4 -68.5 34t-42.5 58l-55 205 q-8 16 -24 35l-34 34l-114 142q-14 16 -32 38t-34 26q-10 4 -21 4h-22l-94 -6h-78q-33 0 -57 6q-22 4 -45 25t-33 44q-6 17 -6 51v326v53t-2 55zM434 1202q0 -30 21.5 -52t52.5 -22q30 0 52 22t22 52q0 28 -22 50t-52 22t-52 -21.5t-22 -50.5zM680 690h10q43 0 72 -22 q28 -22 53 -46q41 -41 71 -80.5t64 -82.5q18 -22 40 -44q22 -23 32 -45q14 -24 23 -56t20 -66q8 -37 17.5 -79t27.5 -50q18 -9 39 -9q51 0 78 50t27 116l-2 31q-4 37 -18 69t-29 63.5t-27 64t-12 68.5q16 4 33 4h36l187 -6q52 0 84 8q33 6 60.5 36.5t29.5 71.5 q0 35 -18 72.5t-52 44.5q16 16 23 39.5t7 50.5q0 35 -11 65t-33 44q14 26 14 59q0 37 -16 70q-18 33 -40 47q2 10 2 21v21q0 35 -7 62.5t-23 46.5q-26 28 -76 39q-48 10 -108 10t-117 -7t-97 -17q-49 -10 -92.5 -25.5t-87 -30t-88.5 -26.5t-96 -14v-568z" />
<glyph unicode="i" horiz-adv-x="2045" d="M240 270q0 56 25.5 105t68.5 86t101.5 58t125.5 21q75 0 143 -28v862q0 28 23 48t57 20l952 59q33 0 55.5 -18.5t22.5 -46.5v-1106q0 -56 -25 -105t-68 -86t-102 -58t-126 -21q-68 0 -126.5 21t-102.5 58t-69 86t-25 105t25 105t69 85.5t103 58t126 21.5q73 0 143 -26 v598q0 24 -21 41.5t-51 17.5l-610 -41q-28 0 -49 -28t-21 -52v-840q0 -56 -25 -105t-69 -85.5t-103 -58t-126 -21.5q-68 0 -126 21.5t-101 58t-68 86.5q-26 48 -26 104z" />
<glyph unicode="j" horiz-adv-x="2050" d="M553 654l703 845l-146 -612h391l-817 -887l217 654h-348z" />
<glyph unicode="k" horiz-adv-x="2045" d="M152 -2v160h200v850h369v-850h111v1079h368v-1079h119v1343h369v-1343h210v-160h-1746z" />
<glyph unicode="l" d="M553 1040q0 94 36.5 178t101.5 147t150 98.5t183 35.5t184 -35.5t151 -98.5t101.5 -147t36.5 -178q0 -84 -19.5 -135t-51.5 -100t-74 -111q-42 -64 -84 -170q-4 -12 -5 -22t-1 -29v-49h-474v90q-47 106 -89.5 168t-75.5 110t-51.5 101t-18.5 147zM790 146v88h468v-88 h-468zM790 282v90h468v-90h-468zM910 -2v88h228v-88h-228z" />
<glyph unicode="m" horiz-adv-x="2050" d="M172 471v883q0 60 43 102.5t103 42.5h1421q60 0 103 -43q42 -42 42 -102v-883q0 -60 -43 -102.5t-102 -42.5h-547v-146h244v-182h-816v182h244v146h-546q-60 0 -103 43t-43 102zM354 637q0 -35 23 -57.5t57 -22.5h1188q35 0 57.5 22.5t22.5 57.5v569q0 33 -22.5 56.5 t-57.5 23.5h-1188q-35 0 -58 -24q-22 -24 -22 -56v-569z" />
<glyph unicode="n" d="M242 1050l59 64l43 -16l78 -78l152 -60l147 64l63 150l-59 149l-76 80l-18 41l59 62l270 -124l94 -428l116 -120l298 300l29 95l227 137l90 -90l-138 -209l-103 -35l-307 -301l334 -344l106 -182l-160 -166l-192 94l-346 355l-136 -150l-51 -108l-233 -228l-166 166 l217 219l129 53l146 140l-120 114l-430 92zM1368 299l76 -73l76 73l-76 76z" />
<glyph unicode="o" horiz-adv-x="2052" d="M274 590v318l158 10q22 74 58 134l-107 116l223 224l117 -106q58 36 135 58l10 155h318l8 -155q78 -22 135 -58l117 106l223 -224l-105 -116q16 -33 31 -66.5t25 -67.5l158 -10v-318l-158 -10q-10 -35 -24 -69q-16 -35 -32 -67l105 -114l-223 -226l-117 107 q-58 -35 -135 -57l-8 -156h-318l-10 156q-78 22 -135 57l-117 -107l-223 226l107 114q-35 62 -58 136zM656 748q0 -76 28 -144t79.5 -118t118 -78.5t144.5 -28.5q76 0 143.5 28.5t119 78.5t79.5 118t28 144t-28 143t-79.5 118.5t-119 80t-143.5 28.5q-78 0 -144.5 -28.5 t-118 -80t-79.5 -118.5t-28 -143zM796 748q0 47 19 88.5t49.5 72.5t72.5 49.5t89 18.5t89 -18.5t72.5 -49.5t49.5 -73t19 -88q0 -47 -19 -89.5t-49.5 -73t-72.5 -49t-89 -18.5t-89 18.5t-72.5 49t-49.5 72.5t-19 90z" />
<glyph unicode="p" d="M250 0q137 6 252.5 20.5t243.5 28.5q-16 70 -55 138.5t-94 123.5t-122 95.5t-137 56.5zM404 565l950 936q84 -8 161 -46t136 -98.5t96 -139.5t43 -169q-110 -108 -191 -188t-148 -145.5t-127 -123t-128 -122.5t-149 -145t-191 -189q-60 168 -172 272.5t-280 157.5z" />
<glyph unicode="q" horiz-adv-x="2045" d="M274 750q0 156 59.5 292t162 238t238.5 161.5t292 59.5t292 -59.5t238.5 -161.5t161.5 -238q60 -136 60 -292t-59.5 -292t-162 -239t-238.5 -162t-292 -59t-292 59t-238.5 162t-162 239t-59.5 292zM430 750q0 -123 47 -231.5t128 -189.5t189.5 -128t231.5 -47t231.5 47 t189.5 128t128 189t47 232q0 123 -47 231.5t-128 189.5t-189.5 128t-231.5 47t-231.5 -47t-189.5 -128t-128 -190t-47 -231zM565 750q0 94 36 178t99.5 147t146.5 99t179 36q94 0 178 -36t147.5 -99t99.5 -147t36 -178q0 -96 -36 -179t-99.5 -147t-147.5 -99.5t-178 -35.5 q-96 0 -179 35.5t-146.5 99.5t-99.5 147t-36 179zM710 750q0 -66 25 -123t68 -100t100 -68t123 -25t123 25t99 68t67 100t25 123t-25 123t-67 99t-99 66.5t-123 24.5t-123 -24.5t-100 -66.5t-68 -100q-25 -56 -25 -122zM846 750q0 74 53 126t127 52t126 -52t52 -126 t-52 -127t-126 -53q-37 0 -69.5 14t-57.5 38.5t-39 57t-14 70.5z" />
<glyph unicode="r" horiz-adv-x="2050" d="M162 340v750h391l604 411v-1501l-604 340h-391zM1268 1044q0 33 24 58q24 24 58 24q32 0 57 -22q84 -80 125 -181.5t41 -207.5q0 -102 -38 -201q-37 -98 -115 -176q-24 -24 -60 -24q-34 0 -58 24t-24 58q0 32 24 56q53 56 80 124.5t27 140.5q0 74 -28.5 143.5 t-86.5 124.5q-26 25 -26 59zM1474 1256q0 35 23 57q25 27 59 27t58 -25q127 -123 192.5 -267.5t69.5 -316.5v-16q0 -162 -60.5 -307.5t-185.5 -274.5q-24 -25 -57 -25q-29 0 -57 23q-24 23 -25 59q1 30 23 58q96 98 143 220t47 249q0 133 -51 258t-154 223q-25 24 -25 58z " />
<glyph unicode="s" horiz-adv-x="2050" d="M393 994q0 53 3 106q4 52 12 110q70 12 159 45t176 74t162.5 87t118.5 85q43 -39 119.5 -85t166 -87t179.5 -74q89 -33 159 -45q10 -60 13.5 -113t3.5 -106q0 -198 -54.5 -355t-143.5 -277.5t-204.5 -207.5t-238.5 -149q-127 58 -241.5 146t-200.5 209.5t-137.5 279 t-51.5 357.5z" />
<glyph unicode="t" horiz-adv-x="2052" d="M166 442v912q0 62 43 103.5t103 41.5h1422q60 0 103 -42q43 -41 43 -103v-912q0 -60 -43 -102.5t-103 -42.5h-280v-299l-402 299h-740q-60 0 -103 43q-43 42 -43 102zM430 565h1190v145h-1190v-145zM430 830h1190v145h-1190v-145zM430 1088h1190v145h-1190v-145z" />
<glyph unicode="u" horiz-adv-x="2050" d="M280 750q0 156 59 292t160 237t237 159.5t292 58.5t292 -58.5t237.5 -159.5t160.5 -237q58 -136 58 -292t-58.5 -292t-160 -237.5t-237.5 -160t-292 -58.5t-292 58.5t-237 160t-160 237.5t-59 292zM598 641h322v-323h214v323h324v215h-324v322h-214v-322h-322v-215z" />
<glyph unicode="v" horiz-adv-x="2050" d="M140 309v881q0 49 18 92t51 75.5t76 51.5t92 19h1294q49 0 92 -19t76 -51.5t51 -75.5t18 -92v-881q0 -49 -18 -92t-51 -76t-76 -51t-92 -18h-1294q-49 0 -92 18t-76 51t-51 76t-18 92zM250 309q0 -53 37 -89t90 -36h1294q53 0 89 36t36 89v697h-1546v-697zM318 1214 q0 -33 22 -55.5t56 -22.5q33 0 55 23t22 55q0 35 -22 57.5t-55 22.5t-55.5 -22t-22.5 -58zM578 1214q0 -33 22 -55.5t56 -22.5q35 0 57 23t22 55q0 35 -22 57.5t-57 22.5q-33 0 -55.5 -22t-22.5 -58zM838 404v392q0 24 20 36q8 6 20 6q10 0 21 -6l340 -197q19 -10 19 -35 q0 -22 -19 -35l-340 -197q-13 -4 -21 -4t-20 4q-20 14 -20 36zM838 1214q0 -33 22 -55.5t56 -22.5q33 0 55.5 23t22.5 55q0 35 -22.5 57.5t-55.5 22.5t-55.5 -22t-22.5 -58z" />
<glyph unicode="w" horiz-adv-x="2045" d="M272 750q0 156 59.5 292t162 238t238.5 161.5t292 59.5t292 -59.5t238.5 -161.5t161.5 -238q60 -136 60 -292t-59.5 -293t-162 -239t-238.5 -161t-292 -59t-292 59t-238.5 161t-162 239t-59.5 293zM402 717q8 -149 77 -269h183q-16 58 -26 124.5t-12 144.5h-222zM402 764 h220q4 154 32 266h-185q-30 -60 -47.5 -127t-19.5 -139zM496 1077h172q22 80 55.5 141.5t68.5 108.5q-92 -37 -168 -100q-74 -63 -128 -150zM508 400q56 -78 131.5 -139t167.5 -95q-35 43 -69 100.5t-60 133.5h-170zM719 717q6 -159 43 -269h215v269h-258zM719 764h258v266 h-225q-16 -56 -24.5 -122t-8.5 -144zM766 1077h211v293h-9q-45 -33 -103 -102.5t-99 -190.5zM778 400q43 -110 100.5 -173t98.5 -92v265h-199zM1073 137q41 28 96 91q55 64 99 172h-195v-263zM1073 448h211q16 56 27.5 122.5t15.5 146.5h-254v-269zM1073 764h254 q0 78 -8.5 144.5t-24.5 121.5h-221v-266zM1073 1077h207q-30 86 -80.5 163t-126.5 130v-293zM1239 164q92 35 169 95.5t132 142.5h-172q-26 -78 -60 -136.5t-69 -101.5zM1252 1329q37 -47 70.5 -108.5t55.5 -143.5h174q-53 86 -128.5 150.5t-171.5 101.5zM1382 446h187 q69 125 77 271h-224q-2 -78 -12 -145q-12 -66 -28 -126zM1392 1030q26 -112 32 -266h222q-2 72 -19 139.5t-48 126.5h-187z" />
<glyph unicode="x" horiz-adv-x="2052" d="M422 344q0 39 14 75.5t46 68.5l253 254l-253 256q-60 64 -60 142q0 39 15 77.5t45 66.5q28 28 66 44t76 16q80 0 144 -60l254 -254l256 254q64 60 144 60q39 0 76.5 -15.5t65.5 -44.5q60 -64 60 -144q0 -39 -15 -76.5t-45 -65.5l-254 -256l254 -254q28 -28 44 -66.5 t16 -77.5t-15 -76.5t-45 -67.5t-67 -44t-75 -14q-39 0 -77.5 14t-66.5 44l-256 254l-254 -254q-30 -30 -67 -44t-77 -14q-39 0 -76.5 14t-68.5 44q-28 28 -42.5 66.5t-14.5 77.5z" />
<glyph unicode="y" horiz-adv-x="2050" d="M280 750q0 156 59 292t160 237t237 159.5t292 58.5t292 -58.5t237.5 -159.5t160.5 -237q58 -136 58 -292t-58.5 -292t-160 -237.5t-237.5 -160t-292 -58.5t-292 58.5t-237 160t-160 237.5t-59 292zM598 641h860v215h-860v-215z" />
<glyph unicode="z" horiz-adv-x="2050" d="M221 918h592l195 583l239 -575h575l-486 -348l239 -580l-549 346l-488 -338l168 568z" />
<glyph unicode="{" horiz-adv-x="2045" d="M322 698q0 146 55 274t150 223t223 150.5t274 55.5q66 -1 127 -13l23 111l284 -249l-358 -124l22 115q-24 4 -49 7.5t-49 3.5q-114 0 -215 -43t-176.5 -119t-118.5 -176q-43 -102 -43 -216t43 -213.5t118.5 -175t176.5 -118.5t215 -43q112 0 213 43t176.5 118.5 t118.5 175t43 213.5q0 123 -49.5 228.5t-133.5 181.5l156 56q82 -94 129 -212t47 -254q0 -146 -55 -272.5t-150 -222t-223 -150.5t-272 -55q-146 0 -274 55t-223 150.5t-150 222.5q-55 126 -55 272zM694 452q0 30 20 87q18 57 84 123l38 36q41 41 55 67.5t14 60.5 q0 30 -13.5 49.5t-39.5 19.5q-30 0 -40 -21q-12 -22 -16 -57q-2 -22 -16 -33.5t-32 -11.5q-28 0 -38 20t-10 40q0 64 39 103.5t109 39.5q78 0 121 -38q43 -37 43 -113q0 -82 -70 -154l-66 -66q-33 -30 -49 -56t-24 -50h155q26 0 42 -10t16 -36t-16 -35t-42 -9h-218 q-46 0 -46 44zM1030 563q0 21 14 57l156 320q10 24 24 32q14 7 40 7q28 0 40.5 -14.5t12.5 -34.5v-326h19q14 0 28 -9t14 -32q0 -24 -14 -33.5t-28 -9.5h-19v-66q0 -58 -47 -56q-22 0 -36 14t-14 42v66h-132q-58 0 -58 43zM1114 604h106v228z" />
<glyph unicode="|" d="M192 811q0 60 39 102.5t97 42.5h182v-8q0 -62 43 -104q43 -43 103 -43t102 43l114 112h275l107 -106q43 -43 102 -43q60 0 102 43q22 22 32.5 50t10.5 56h221q56 0 96 -43t40 -102q0 -47 -25 -84t-65 -53q-2 -10 -3 -22q-1 -14 -6 -24l-102 -366q-22 -78 -94 -129 t-154 -51h-755q-41 0 -80.5 13t-72 38t-57 57.5t-34.5 71.5l-98 366l-7 40q-47 10 -80 50t-33 93zM551 610q0 -12 2 -18l84 -295q8 -22 27.5 -36.5t43.5 -14.5q12 0 19 2q53 16 53 66q0 12 -2 18l-84 294q-6 22 -28 37t-46 15q-10 0 -16 -2q-53 -14 -53 -66zM576 954 q0 37 28 66l308 307q4 39 32 67t68 28q33 0 58.5 -18t35.5 -46q10 -16 10 -31l310 -307q26 -30 26 -66q0 -37 -26 -63q-26 -27 -66 -27t-64 27l-282 283l-283 -283q-25 -27 -63 -27q-39 0 -64 27q-28 23 -28 63zM952 309q0 -28 22 -47.5t50 -19.5q30 0 52 19t22 48v305 q0 28 -22 48t-52 20q-28 0 -50 -20t-22 -48v-305zM1276 316q0 -22 15 -42t40 -26q7 -2 19 -2q22 0 42 14q22 14 28 37l83 295q3 6 3 18q0 51 -54 66q-6 2 -16 2q-24 0 -45 -14q-21 -16 -27 -38l-86 -294q-2 -6 -2 -16z" />
<glyph unicode="}" horiz-adv-x="2045" d="M440 584q0 121 46 227.5t126 186t186.5 126t227.5 46.5t227.5 -46.5t186.5 -126t126 -186.5t46 -227q0 -121 -46 -227.5t-126 -186.5t-186.5 -126t-227.5 -46t-227.5 46t-186.5 126t-126 186q-46 108 -46 228zM528 584q0 -102 39 -193.5t107 -159t159 -106.5t193 -39 t192 39t158 106.5t107 159t39 193.5t-39 192t-107 158t-158 107t-192 39t-193 -39t-159 -107t-107 -158t-39 -192zM610 590q0 18 21 18h96q19 0 19 -18t-19 -18h-96q-21 0 -21 18zM643 428q1 12 11 16l86 44q4 0 5 1t3 1q12 0 18 -11q0 -4 1 -5t1 -3l-2 -6q-2 -9 -10 -11 l-86 -42q-2 -2 -8 -2q-10 0 -17 10q-2 2 -2 8zM645 750q0 4 2 6q7 10 17 10q6 0 8 -2l88 -41q8 -5 8 -11q0 -4 1 -5t1 -3l-2 -6q-6 -10 -16 -10h-8l-88 43q-4 3 -9 11q-2 2 -2 8zM731 301q1 7 7 13l67 67q6 6 12 6q9 0 15 -6q4 -9 4 -13q0 -6 -4 -14l-68 -68q-6 -6 -14 -6 q-10 0 -12 6q-6 6 -7 15zM738 872q0 8 6 15q6 6 12 6q8 0 14 -6l68 -68q6 -6 6 -14q0 -7 -6 -13t-14 -6q-6 0 -13 6l-67 68q-6 6 -6 12zM862 215l2 6l37 91q5 12 17 12q4 0 5 -1t3 -1q10 -6 10 -19l-37 -94q-5 -13 -17 -13q-6 0 -8 2q-12 4 -12 17zM866 1370v80q0 22 16 36 q16 15 36 15h214q22 0 37 -14.5t15 -36.5v-80q0 -20 -14 -36q-16 -15 -38 -15h-38v-82q-16 2 -34 2h-34h-36t-34 -2v82h-38q-20 0 -36 15.5t-16 35.5zM872 958q0 4 2 8t10 9q2 2 7 2q15 -1 19 -13l32 -90q0 -4 1 -5t1 -3l-2 -6q-4 -6 -10 -10q-4 0 -8 -2q-12 0 -16 14 l-34 90q-2 2 -2 6zM1006 188v96q0 18 18 19q18 -1 18 -19v-96q0 -18 -18 -18t-18 18zM1014 590v418q88 0 166 -34t136 -92t92 -136t34 -166q0 -90 -35 -168t-94 -138zM1124 309q0 7 2 9q4 6 10 10q18 0 25 -10l37 -99l-2 -6q-4 -8 -16 -10q-12 0 -19 10l-35 90q-2 2 -2 6z M1390 1130l60 72q16 16 37 16q15 0 29 -10l82 -70q16 -10 16 -36q0 -18 -10 -29l-62 -75q-68 78 -152 132z" />
<glyph unicode="~" d="M467 137v594q0 58 40 98.5t97 40.5v210q0 88 34 164.5t92 134t135 90t165 32.5q84 0 159 -28.5t134 -82.5q127 -114 127 -290q0 -41 -30 -71.5t-72 -30.5q-43 0 -74 30.5t-31 71.5q0 47 -18.5 83.5t-48 61.5t-68.5 37t-78 12q-45 0 -83.5 -17t-68.5 -46t-46.5 -68 t-16.5 -83v-210h633q58 0 97.5 -41t39.5 -98v-594q0 -58 -39.5 -97.5t-97.5 -39.5h-844q-58 0 -97.5 40t-39.5 97zM908 542q0 -35 17 -62.5t48 -43.5l-47 -229q0 -7 2 -9q4 -4 8 -4h176q10 0 10 11l-6 29q-4 22 -14 68t-27 132q33 14 51.5 44t18.5 64q0 49 -35 84.5 t-84 35.5t-83.5 -35t-34.5 -85z" />
<glyph unicode="&#xad;" horiz-adv-x="2052" d="M272 916q0 121 46 227.5t125 185t185.5 124.5t227.5 46t227.5 -46t186.5 -124.5t126 -185.5t46 -227q0 -86 -24 -164t-64 -146l382 -383q39 -39 39.5 -93t-39.5 -95q-39 -39 -93 -39q-55 0 -93 39l-384 385q-68 -43 -146 -66.5t-164 -23.5q-121 0 -227.5 46t-185.5 126 t-125 186t-46 228zM438 916q0 -86 33 -163t90 -133.5t133 -89t162 -32.5t163 32.5t133 89t89 133.5t33 163t-33 162.5t-89 133t-133 89t-163 32.5t-162 -32.5t-133 -89t-90 -133t-33 -162.5zM588 848h526v131h-526v-131z" />
<glyph unicode="&#x2000;" horiz-adv-x="791" />
<glyph unicode="&#x2001;" horiz-adv-x="1583" />
<glyph unicode="&#x2002;" horiz-adv-x="791" />
<glyph unicode="&#x2003;" horiz-adv-x="1583" />
<glyph unicode="&#x2004;" horiz-adv-x="527" />
<glyph unicode="&#x2005;" horiz-adv-x="395" />
<glyph unicode="&#x2006;" horiz-adv-x="263" />
<glyph unicode="&#x2007;" horiz-adv-x="263" />
<glyph unicode="&#x2008;" horiz-adv-x="197" />
<glyph unicode="&#x2009;" horiz-adv-x="316" />
<glyph unicode="&#x200a;" horiz-adv-x="87" />
<glyph unicode="&#x2010;" horiz-adv-x="2052" d="M272 916q0 121 46 227.5t125 185t185.5 124.5t227.5 46t227.5 -46t186.5 -124.5t126 -185.5t46 -227q0 -86 -24 -164t-64 -146l382 -383q39 -39 39.5 -93t-39.5 -95q-39 -39 -93 -39q-55 0 -93 39l-384 385q-68 -43 -146 -66.5t-164 -23.5q-121 0 -227.5 46t-185.5 126 t-125 186t-46 228zM438 916q0 -86 33 -163t90 -133.5t133 -89t162 -32.5t163 32.5t133 89t89 133.5t33 163t-33 162.5t-89 133t-133 89t-163 32.5t-162 -32.5t-133 -89t-90 -133t-33 -162.5zM588 848h526v131h-526v-131z" />
<glyph unicode="&#x2011;" horiz-adv-x="2052" d="M272 916q0 121 46 227.5t125 185t185.5 124.5t227.5 46t227.5 -46t186.5 -124.5t126 -185.5t46 -227q0 -86 -24 -164t-64 -146l382 -383q39 -39 39.5 -93t-39.5 -95q-39 -39 -93 -39q-55 0 -93 39l-384 385q-68 -43 -146 -66.5t-164 -23.5q-121 0 -227.5 46t-185.5 126 t-125 186t-46 228zM438 916q0 -86 33 -163t90 -133.5t133 -89t162 -32.5t163 32.5t133 89t89 133.5t33 163t-33 162.5t-89 133t-133 89t-163 32.5t-162 -32.5t-133 -89t-90 -133t-33 -162.5zM588 848h526v131h-526v-131z" />
<glyph unicode="&#x2012;" horiz-adv-x="2052" d="M272 916q0 121 46 227.5t125 185t185.5 124.5t227.5 46t227.5 -46t186.5 -124.5t126 -185.5t46 -227q0 -86 -24 -164t-64 -146l382 -383q39 -39 39.5 -93t-39.5 -95q-39 -39 -93 -39q-55 0 -93 39l-384 385q-68 -43 -146 -66.5t-164 -23.5q-121 0 -227.5 46t-185.5 126 t-125 186t-46 228zM438 916q0 -86 33 -163t90 -133.5t133 -89t162 -32.5t163 32.5t133 89t89 133.5t33 163t-33 162.5t-89 133t-133 89t-163 32.5t-162 -32.5t-133 -89t-90 -133t-33 -162.5zM588 848h526v131h-526v-131z" />
<glyph unicode="&#x2013;" horiz-adv-x="1573" d="M272 916q0 121 31.5 227.5t85 185t126.5 124.5t155 46t155 -46t127 -124.5t86 -185.5t32 -227q0 -86 -16.5 -164t-44.5 -146l261 -383q26 -39 26 -93t-26 -95q-26 -39 -63 -39t-64 39l-262 385q-46 -43 -99.5 -66.5t-111.5 -23.5q-82 0 -155 46t-126.5 126t-85 186 t-31.5 228zM386 916q0 -86 22 -163t61 -133.5t91 -89t110 -32.5t110.5 32.5t91 89t61 133.5t22.5 163t-22.5 162.5t-61 133t-91 89t-110.5 32.5t-110 -32.5t-91 -89t-61 -133t-22 -162.5zM488 848h358v131h-358v-131z" />
<glyph unicode="&#x2014;" horiz-adv-x="2597" d="M272 916q0 121 63 227.5t170 185t252 124.5t311 46q165 0 309.5 -46t253.5 -124.5t172 -185.5t63 -227q0 -86 -32 -164t-88 -146l522 -383q53 -39 52.5 -93t-52.5 -95q-54 -39 -128 -39t-126 39l-524 385q-92 -43 -198 -66q-106 -24 -224 -24q-165 0 -310.5 46 t-252.5 126t-170 186t-63 228zM498 916q0 -86 45 -163t123 -133.5t181 -89t221 -32.5t222 32.5t181 89t121.5 133.5t44.5 163t-44.5 162.5t-121.5 133t-181 88.5q-104 33 -222 33q-117 0 -220.5 -32.5t-181.5 -89t-123 -133t-45 -162.5zM702 848h717v131h-717v-131z" />
<glyph unicode="&#x201a;" d="M408 146l96 913q6 47 42 81t82 34h66q2 68 29 127t71 103t104 69.5t128 25.5t127 -25.5t104 -69.5t72 -104q27 -58 27 -126h66q47 0 83.5 -34t40.5 -81l94 -891l2 -22q0 -62 -34 -105t-88 -43h-988q-53 0 -88.5 43t-35.5 105zM592 148h542l-407 134l-90 498zM819 1174 h412q-4 84 -62.5 142t-142.5 58q-86 0 -144 -58t-63 -142z" />
<glyph unicode="&#x202f;" horiz-adv-x="316" />
<glyph unicode="&#x2039;" horiz-adv-x="2045" d="M582 750l812 749l74 -82l-724 -669l724 -668l-74 -82z" />
<glyph unicode="&#x203a;" horiz-adv-x="2045" d="M582 80l726 668l-726 669l74 82l812 -749l-812 -752z" />
<glyph unicode="&#x205f;" horiz-adv-x="395" />
<glyph unicode="&#x20ac;" horiz-adv-x="2050" d="M330 383v932q0 78 54 131t132 53h1018q78 0 132 -53.5t54 -130.5v-932q0 -78 -54 -132.5t-132 -54.5h-1018q-78 0 -132 54.5t-54 132.5zM412 1020h65v207q0 53 39 92q38 39 92 39h916v66h-916q-82 0 -139 -58t-57 -139v-207zM512 51q0 20 13 34.5t34 14.5h246 q20 0 34.5 -14t14.5 -35q0 -20 -14 -34.5t-35 -14.5h-246q-20 0 -33.5 14t-13.5 35zM662 848q0 -74 27.5 -139.5t76.5 -114.5t114.5 -77.5t139.5 -28.5t139 28.5t114.5 77.5t78 114.5t28.5 139.5t-28.5 139t-78 114.5t-114.5 78t-139 28.5t-139.5 -28.5t-114.5 -78 t-76.5 -114.5t-27.5 -139zM706 850q0 24 25 24h107q22 0 22 -24q0 -22 -22 -22h-107q-25 0 -25 22zM798 628q-18 18 0 34l76 76q6 8 16 8q12 0 18 -8q8 -6 8 -17t-8 -17l-76 -76q-6 -6 -16 -6q-12 0 -18 6zM798 1040q-18 14 0 33q16 16 34 0l76 -75q8 -6 8 -16q0 -12 -8 -18 q-6 -8 -17 -8t-17 8zM901 848q0 49 35 84.5t84 35.5q51 0 85.5 -35.5t34.5 -84.5t-34.5 -84t-85.5 -35q-49 0 -84 34.5t-35 84.5zM998 561v107q0 22 22 22q24 0 24 -22v-107q0 -25 -24 -25q-22 0 -22 25zM998 1034v106q0 24 22 26q24 0 24 -26v-106q0 -22 -24 -22 q-22 0 -22 22zM1126 720q0 12 8 18q6 8 16 8q12 0 18 -8l75 -76q14 -14 0 -34q-19 -14 -35 0l-74 76q-8 6 -8 16zM1126 980q0 12 8 18l74 75q16 14 35 0q14 -19 0 -33l-75 -76q-6 -8 -17 -8t-17 8q-8 6 -8 16zM1172 51q0 20 13 34.5t35 14.5h244q22 0 36 -14t14 -35 q0 -20 -14 -35q-14 -14 -36 -14h-244q-22 0 -35 14t-13 35zM1182 850q0 24 22 24h106q10 0 18 -7t8 -17t-8 -16t-18 -6h-106q-22 0 -22 22z" />
<glyph unicode="&#xe000;" horiz-adv-x="1342" d="M0 0v1342h1342v-1342h-1342z" />
</font>
</defs>
</svg>
